<mxfile host="app.diagrams.net" modified="2021-04-19T14:38:02.825Z" agent="5.0 (Macintosh; Intel Mac OS X 10_14_3) AppleWebKit/537.36 (KHTML, like Gecko) Chrome/89.0.4389.128 Safari/537.36" etag="6hAX1mmd0AQvwXs_wmK3" version="14.5.10" type="github">
  <diagram id="Lof0R5rhfGAX3NdKyFyQ" name="Page-1">
    <mxGraphModel dx="946" dy="487" grid="0" gridSize="10" guides="1" tooltips="1" connect="1" arrows="1" fold="1" page="1" pageScale="1" pageWidth="720" pageHeight="250" background="#EFF1F3" math="0" shadow="0">
      <root>
        <mxCell id="0" />
        <mxCell id="1" parent="0" />
        <mxCell id="wdfUIwA4EHPiVqjbUW1X-7" value="" style="rounded=1;whiteSpace=wrap;html=1;strokeColor=#000000;fillColor=none;dashed=1;strokeWidth=5;" parent="1" vertex="1">
          <mxGeometry x="152.5" y="52.400000000000006" width="178" height="175.2" as="geometry" />
        </mxCell>
        <mxCell id="wdfUIwA4EHPiVqjbUW1X-1" value="" style="rounded=1;whiteSpace=wrap;html=1;strokeColor=none;fillColor=#67AB9F;" parent="1" vertex="1">
          <mxGeometry x="183" y="72.22999999999999" width="120" height="60" as="geometry" />
        </mxCell>
        <mxCell id="wdfUIwA4EHPiVqjbUW1X-2" value="readLoop" style="text;html=1;strokeColor=none;fillColor=none;align=center;verticalAlign=middle;whiteSpace=wrap;rounded=0;" parent="1" vertex="1">
          <mxGeometry x="201" y="92.22999999999999" width="81" height="20" as="geometry" />
        </mxCell>
        <mxCell id="wdfUIwA4EHPiVqjbUW1X-3" value="writeLoop" style="rounded=1;whiteSpace=wrap;html=1;strokeColor=none;fillColor=#FDD276;" parent="1" vertex="1">
          <mxGeometry x="181.5" y="150.23" width="120" height="60" as="geometry" />
        </mxCell>
        <mxCell id="wdfUIwA4EHPiVqjbUW1X-5" value="" style="fontColor=#0066CC;verticalAlign=top;verticalLabelPosition=bottom;labelPosition=center;align=center;html=1;outlineConnect=0;gradientColor=none;gradientDirection=north;strokeWidth=2;shape=mxgraph.networks.server;fillColor=#4A919B;" parent="1" vertex="1">
          <mxGeometry x="489" y="94.44" width="82" height="91.11" as="geometry" />
        </mxCell>
        <mxCell id="wdfUIwA4EHPiVqjbUW1X-6" value="" style="fontColor=#0066CC;verticalAlign=top;verticalLabelPosition=bottom;labelPosition=center;align=center;html=1;outlineConnect=0;gradientColor=none;gradientDirection=north;strokeWidth=2;shape=mxgraph.networks.pc;fillColor=#4A919B;" parent="1" vertex="1">
          <mxGeometry x="27" y="109.77000000000001" width="100" height="70" as="geometry" />
        </mxCell>
        <mxCell id="wdfUIwA4EHPiVqjbUW1X-8" value="&lt;pre style=&quot;font-family: &amp;#34;source code pro&amp;#34;&quot;&gt;&lt;font style=&quot;font-size: 20px&quot;&gt;persistConn&lt;/font&gt;&lt;/pre&gt;" style="text;html=1;strokeColor=none;fillColor=none;align=center;verticalAlign=middle;whiteSpace=wrap;rounded=0;dashed=1;" parent="1" vertex="1">
          <mxGeometry x="161.25" y="18" width="160.5" height="20" as="geometry" />
        </mxCell>
        <mxCell id="wdfUIwA4EHPiVqjbUW1X-9" value="" style="shape=flexArrow;endArrow=classic;html=1;rounded=1;strokeColor=none;fillColor=#67AB9F;" parent="1" edge="1">
          <mxGeometry width="50" height="50" relative="1" as="geometry">
            <mxPoint x="375" y="118" as="sourcePoint" />
            <mxPoint x="457" y="118" as="targetPoint" />
          </mxGeometry>
        </mxCell>
        <mxCell id="wdfUIwA4EHPiVqjbUW1X-10" value="" style="shape=flexArrow;endArrow=classic;html=1;rounded=1;strokeColor=none;fillColor=#FDD276;" parent="1" edge="1">
          <mxGeometry width="50" height="50" relative="1" as="geometry">
            <mxPoint x="454" y="168.02999999999983" as="sourcePoint" />
            <mxPoint x="370" y="167.99999999999997" as="targetPoint" />
          </mxGeometry>
        </mxCell>
        <mxCell id="wdfUIwA4EHPiVqjbUW1X-12" value="&lt;pre style=&quot;font-family: &amp;#34;source code pro&amp;#34;&quot;&gt;&lt;font style=&quot;font-size: 20px&quot;&gt;client&lt;/font&gt;&lt;/pre&gt;" style="text;html=1;strokeColor=none;fillColor=none;align=center;verticalAlign=middle;whiteSpace=wrap;rounded=0;dashed=1;" parent="1" vertex="1">
          <mxGeometry x="16" y="77" width="125.5" height="20" as="geometry" />
        </mxCell>
        <mxCell id="wdfUIwA4EHPiVqjbUW1X-13" value="&lt;pre style=&quot;font-family: &amp;#34;source code pro&amp;#34;&quot;&gt;&lt;font style=&quot;font-size: 20px&quot;&gt;Server&lt;/font&gt;&lt;/pre&gt;" style="text;html=1;strokeColor=none;fillColor=none;align=center;verticalAlign=middle;whiteSpace=wrap;rounded=0;dashed=1;" parent="1" vertex="1">
          <mxGeometry x="459" y="64" width="125.5" height="20" as="geometry" />
        </mxCell>
        <mxCell id="3YNQRvf3HG8oj0ThBcPl-4" value="" style="shape=mxgraph.bpmn.shape;html=1;verticalLabelPosition=bottom;labelBackgroundColor=#ffffff;verticalAlign=top;align=center;perimeter=rhombusPerimeter;background=gateway;outlineConnect=0;outline=standard;symbol=timer;strokeColor=#000000;strokeWidth=1;fillColor=#535E80;" parent="1" vertex="1">
          <mxGeometry x="111.37" y="309" width="50" height="50" as="geometry" />
        </mxCell>
        <mxCell id="3YNQRvf3HG8oj0ThBcPl-5" value="" style="shape=mxgraph.bpmn.shape;html=1;verticalLabelPosition=bottom;labelBackgroundColor=#ffffff;verticalAlign=top;align=center;perimeter=rhombusPerimeter;background=gateway;outlineConnect=0;outline=standard;symbol=timer;strokeColor=#000000;strokeWidth=1;fillColor=#535E80;" parent="1" vertex="1">
          <mxGeometry x="82.37" y="341" width="50" height="50" as="geometry" />
        </mxCell>
        <mxCell id="3YNQRvf3HG8oj0ThBcPl-6" value="" style="shape=mxgraph.bpmn.shape;html=1;verticalLabelPosition=bottom;labelBackgroundColor=#ffffff;verticalAlign=top;align=center;perimeter=rhombusPerimeter;background=gateway;outlineConnect=0;outline=standard;symbol=timer;strokeColor=#000000;strokeWidth=1;fillColor=#535E80;" parent="1" vertex="1">
          <mxGeometry x="142.37" y="341" width="50" height="50" as="geometry" />
        </mxCell>
        <mxCell id="3YNQRvf3HG8oj0ThBcPl-7" value="" style="shape=mxgraph.bpmn.shape;html=1;verticalLabelPosition=bottom;labelBackgroundColor=#ffffff;verticalAlign=top;align=center;perimeter=rhombusPerimeter;background=gateway;outlineConnect=0;outline=standard;symbol=timer;strokeColor=#000000;strokeWidth=1;fillColor=#535E80;" parent="1" vertex="1">
          <mxGeometry x="51.370000000000005" y="375" width="50" height="50" as="geometry" />
        </mxCell>
        <mxCell id="3YNQRvf3HG8oj0ThBcPl-8" value="" style="shape=mxgraph.bpmn.shape;html=1;verticalLabelPosition=bottom;labelBackgroundColor=#ffffff;verticalAlign=top;align=center;perimeter=rhombusPerimeter;background=gateway;outlineConnect=0;outline=standard;symbol=timer;strokeColor=#000000;strokeWidth=1;fillColor=#535E80;" parent="1" vertex="1">
          <mxGeometry x="111.37" y="375" width="50" height="50" as="geometry" />
        </mxCell>
        <mxCell id="3YNQRvf3HG8oj0ThBcPl-9" value="" style="shape=mxgraph.bpmn.shape;html=1;verticalLabelPosition=bottom;labelBackgroundColor=#ffffff;verticalAlign=top;align=center;perimeter=rhombusPerimeter;background=gateway;outlineConnect=0;outline=standard;symbol=timer;strokeColor=#000000;strokeWidth=1;fillColor=#535E80;" parent="1" vertex="1">
          <mxGeometry x="172.12" y="377" width="50" height="50" as="geometry" />
        </mxCell>
        <mxCell id="3YNQRvf3HG8oj0ThBcPl-10" value="" style="shape=mxgraph.bpmn.shape;html=1;verticalLabelPosition=bottom;labelBackgroundColor=#ffffff;verticalAlign=top;align=center;perimeter=rhombusPerimeter;background=gateway;outlineConnect=0;outline=standard;symbol=timer;strokeColor=#000000;strokeWidth=1;fillColor=#67AB9F;" parent="1" vertex="1">
          <mxGeometry x="22" y="408" width="50" height="50" as="geometry" />
        </mxCell>
        <mxCell id="3YNQRvf3HG8oj0ThBcPl-11" value="" style="shape=mxgraph.bpmn.shape;html=1;verticalLabelPosition=bottom;labelBackgroundColor=#ffffff;verticalAlign=top;align=center;perimeter=rhombusPerimeter;background=gateway;outlineConnect=0;outline=standard;symbol=timer;strokeColor=#000000;strokeWidth=1;fillColor=#535E80;" parent="1" vertex="1">
          <mxGeometry x="82" y="408" width="50" height="50" as="geometry" />
        </mxCell>
        <mxCell id="3YNQRvf3HG8oj0ThBcPl-12" value="" style="shape=mxgraph.bpmn.shape;html=1;verticalLabelPosition=bottom;labelBackgroundColor=#ffffff;verticalAlign=top;align=center;perimeter=rhombusPerimeter;background=gateway;outlineConnect=0;outline=standard;symbol=timer;strokeColor=#000000;strokeWidth=1;fillColor=#535E80;" parent="1" vertex="1">
          <mxGeometry x="142.75" y="410" width="50" height="50" as="geometry" />
        </mxCell>
        <mxCell id="3YNQRvf3HG8oj0ThBcPl-13" value="" style="shape=mxgraph.bpmn.shape;html=1;verticalLabelPosition=bottom;labelBackgroundColor=#ffffff;verticalAlign=top;align=center;perimeter=rhombusPerimeter;background=gateway;outlineConnect=0;outline=standard;symbol=timer;strokeColor=#000000;strokeWidth=1;fillColor=#535E80;" parent="1" vertex="1">
          <mxGeometry x="202.37" y="410" width="50" height="50" as="geometry" />
        </mxCell>
        <mxCell id="3YNQRvf3HG8oj0ThBcPl-14" value="" style="shape=mxgraph.bpmn.shape;html=1;verticalLabelPosition=bottom;labelBackgroundColor=#ffffff;verticalAlign=top;align=center;perimeter=rhombusPerimeter;background=gateway;outlineConnect=0;outline=standard;symbol=timer;strokeColor=#000000;strokeWidth=1;dashed=1;fillColor=#CCCCCC;" parent="1" vertex="1">
          <mxGeometry x="493.37" y="309" width="50" height="50" as="geometry" />
        </mxCell>
        <mxCell id="3YNQRvf3HG8oj0ThBcPl-15" value="" style="shape=mxgraph.bpmn.shape;html=1;verticalLabelPosition=bottom;labelBackgroundColor=#ffffff;verticalAlign=top;align=center;perimeter=rhombusPerimeter;background=gateway;outlineConnect=0;outline=standard;symbol=timer;strokeColor=#000000;strokeWidth=1;fillColor=#535E80;" parent="1" vertex="1">
          <mxGeometry x="464.37" y="341" width="50" height="50" as="geometry" />
        </mxCell>
        <mxCell id="3YNQRvf3HG8oj0ThBcPl-16" value="" style="shape=mxgraph.bpmn.shape;html=1;verticalLabelPosition=bottom;labelBackgroundColor=#ffffff;verticalAlign=top;align=center;perimeter=rhombusPerimeter;background=gateway;outlineConnect=0;outline=standard;symbol=timer;strokeColor=#000000;strokeWidth=1;fillColor=#535E80;" parent="1" vertex="1">
          <mxGeometry x="524.37" y="341" width="50" height="50" as="geometry" />
        </mxCell>
        <mxCell id="3YNQRvf3HG8oj0ThBcPl-17" value="" style="shape=mxgraph.bpmn.shape;html=1;verticalLabelPosition=bottom;labelBackgroundColor=#ffffff;verticalAlign=top;align=center;perimeter=rhombusPerimeter;background=gateway;outlineConnect=0;outline=standard;symbol=timer;strokeColor=#000000;strokeWidth=1;fillColor=#535E80;" parent="1" vertex="1">
          <mxGeometry x="433.37" y="375" width="50" height="50" as="geometry" />
        </mxCell>
        <mxCell id="3YNQRvf3HG8oj0ThBcPl-18" value="" style="shape=mxgraph.bpmn.shape;html=1;verticalLabelPosition=bottom;labelBackgroundColor=#ffffff;verticalAlign=top;align=center;perimeter=rhombusPerimeter;background=gateway;outlineConnect=0;outline=standard;symbol=timer;strokeColor=#000000;strokeWidth=1;fillColor=#535E80;" parent="1" vertex="1">
          <mxGeometry x="493.37" y="375" width="50" height="50" as="geometry" />
        </mxCell>
        <mxCell id="3YNQRvf3HG8oj0ThBcPl-19" value="" style="shape=mxgraph.bpmn.shape;html=1;verticalLabelPosition=bottom;labelBackgroundColor=#ffffff;verticalAlign=top;align=center;perimeter=rhombusPerimeter;background=gateway;outlineConnect=0;outline=standard;symbol=timer;strokeColor=#000000;strokeWidth=1;fillColor=#535E80;" parent="1" vertex="1">
          <mxGeometry x="554.12" y="377" width="50" height="50" as="geometry" />
        </mxCell>
        <mxCell id="3YNQRvf3HG8oj0ThBcPl-20" value="" style="shape=mxgraph.bpmn.shape;html=1;verticalLabelPosition=bottom;labelBackgroundColor=#ffffff;verticalAlign=top;align=center;perimeter=rhombusPerimeter;background=gateway;outlineConnect=0;outline=standard;symbol=timer;strokeColor=#000000;strokeWidth=1;fillColor=#535E80;" parent="1" vertex="1">
          <mxGeometry x="404" y="408" width="50" height="50" as="geometry" />
        </mxCell>
        <mxCell id="3YNQRvf3HG8oj0ThBcPl-21" value="" style="shape=mxgraph.bpmn.shape;html=1;verticalLabelPosition=bottom;labelBackgroundColor=#ffffff;verticalAlign=top;align=center;perimeter=rhombusPerimeter;background=gateway;outlineConnect=0;outline=standard;symbol=timer;strokeColor=#000000;strokeWidth=1;fillColor=#535E80;" parent="1" vertex="1">
          <mxGeometry x="464" y="408" width="50" height="50" as="geometry" />
        </mxCell>
        <mxCell id="3YNQRvf3HG8oj0ThBcPl-22" value="" style="shape=mxgraph.bpmn.shape;html=1;verticalLabelPosition=bottom;labelBackgroundColor=#ffffff;verticalAlign=top;align=center;perimeter=rhombusPerimeter;background=gateway;outlineConnect=0;outline=standard;symbol=timer;strokeColor=#000000;strokeWidth=1;fillColor=#535E80;" parent="1" vertex="1">
          <mxGeometry x="524.75" y="410" width="50" height="50" as="geometry" />
        </mxCell>
        <mxCell id="3YNQRvf3HG8oj0ThBcPl-23" value="" style="shape=mxgraph.bpmn.shape;html=1;verticalLabelPosition=bottom;labelBackgroundColor=#ffffff;verticalAlign=top;align=center;perimeter=rhombusPerimeter;background=gateway;outlineConnect=0;outline=standard;symbol=timer;strokeColor=#000000;strokeWidth=1;fillColor=#535E80;" parent="1" vertex="1">
          <mxGeometry x="584.37" y="410" width="50" height="50" as="geometry" />
        </mxCell>
        <mxCell id="3YNQRvf3HG8oj0ThBcPl-24" value="" style="shape=flexArrow;endArrow=classic;html=1;rounded=1;strokeColor=none;fillColor=#67AB9F;" parent="1" edge="1">
          <mxGeometry width="50" height="50" relative="1" as="geometry">
            <mxPoint x="282" y="385" as="sourcePoint" />
            <mxPoint x="364" y="385" as="targetPoint" />
          </mxGeometry>
        </mxCell>
        <mxCell id="3YNQRvf3HG8oj0ThBcPl-26" value="" style="curved=1;endArrow=classic;html=1;strokeWidth=5;dashed=1;entryX=0.25;entryY=0.25;entryDx=0;entryDy=0;entryPerimeter=0;" parent="1" target="3YNQRvf3HG8oj0ThBcPl-10" edge="1">
          <mxGeometry width="50" height="50" relative="1" as="geometry">
            <mxPoint x="138" y="199" as="sourcePoint" />
            <mxPoint x="30" y="412" as="targetPoint" />
            <Array as="points">
              <mxPoint x="22" y="232" />
            </Array>
          </mxGeometry>
        </mxCell>
        <mxCell id="3YNQRvf3HG8oj0ThBcPl-27" value="" style="curved=1;endArrow=classic;html=1;dashed=1;strokeWidth=5;" parent="1" source="3YNQRvf3HG8oj0ThBcPl-10" target="3YNQRvf3HG8oj0ThBcPl-14" edge="1">
          <mxGeometry width="50" height="50" relative="1" as="geometry">
            <mxPoint x="53" y="508" as="sourcePoint" />
            <mxPoint x="485" y="323" as="targetPoint" />
            <Array as="points">
              <mxPoint x="220" y="535" />
              <mxPoint x="369" y="304" />
              <mxPoint x="438" y="304" />
            </Array>
          </mxGeometry>
        </mxCell>
        <mxCell id="3YNQRvf3HG8oj0ThBcPl-29" value="" style="curved=1;endArrow=classic;html=1;dashed=1;strokeWidth=5;entryX=1.025;entryY=0.837;entryDx=0;entryDy=0;entryPerimeter=0;" parent="1" source="3YNQRvf3HG8oj0ThBcPl-30" target="wdfUIwA4EHPiVqjbUW1X-7" edge="1">
          <mxGeometry width="50" height="50" relative="1" as="geometry">
            <mxPoint x="459" y="269" as="sourcePoint" />
            <mxPoint x="453" y="214" as="targetPoint" />
            <Array as="points">
              <mxPoint x="403" y="214" />
            </Array>
          </mxGeometry>
        </mxCell>
        <mxCell id="3YNQRvf3HG8oj0ThBcPl-30" value="" style="shape=mxgraph.bpmn.shape;html=1;verticalLabelPosition=bottom;labelBackgroundColor=#ffffff;verticalAlign=top;align=center;perimeter=rhombusPerimeter;background=gateway;outlineConnect=0;outline=standard;symbol=timer;strokeColor=#000000;strokeWidth=1;fillColor=#67AB9F;" parent="1" vertex="1">
          <mxGeometry x="433.37" y="217" width="50" height="50" as="geometry" />
        </mxCell>
        <mxCell id="3YNQRvf3HG8oj0ThBcPl-31" value="" style="curved=1;endArrow=classic;html=1;dashed=1;strokeWidth=5;exitX=0.75;exitY=0.25;exitDx=0;exitDy=0;exitPerimeter=0;entryX=0.75;entryY=0.75;entryDx=0;entryDy=0;entryPerimeter=0;" parent="1" source="3YNQRvf3HG8oj0ThBcPl-14" target="3YNQRvf3HG8oj0ThBcPl-30" edge="1">
          <mxGeometry width="50" height="50" relative="1" as="geometry">
            <mxPoint x="512" y="304" as="sourcePoint" />
            <mxPoint x="562" y="254" as="targetPoint" />
            <Array as="points">
              <mxPoint x="562" y="304" />
              <mxPoint x="512" y="254" />
            </Array>
          </mxGeometry>
        </mxCell>
        <mxCell id="3YNQRvf3HG8oj0ThBcPl-32" value="1.创建长连接时创建定时器" style="text;html=1;strokeColor=none;fillColor=none;align=center;verticalAlign=middle;whiteSpace=wrap;rounded=0;dashed=1;fontSize=20;" parent="1" vertex="1">
          <mxGeometry x="58.75" y="248" width="134" height="46" as="geometry" />
        </mxCell>
        <mxCell id="3YNQRvf3HG8oj0ThBcPl-33" value="2.过了3s" style="text;html=1;strokeColor=none;fillColor=none;align=center;verticalAlign=middle;whiteSpace=wrap;rounded=0;dashed=1;fontSize=20;" parent="1" vertex="1">
          <mxGeometry x="245" y="345" width="82" height="35" as="geometry" />
        </mxCell>
        <mxCell id="3YNQRvf3HG8oj0ThBcPl-34" value="3.当初的 定时器到点触发时间" style="text;html=1;strokeColor=none;fillColor=none;align=center;verticalAlign=middle;whiteSpace=wrap;rounded=0;dashed=1;fontSize=20;" parent="1" vertex="1">
          <mxGeometry x="554.12" y="267" width="144.88" height="48" as="geometry" />
        </mxCell>
        <mxCell id="3YNQRvf3HG8oj0ThBcPl-35" value="4.触发超时" style="text;html=1;strokeColor=none;fillColor=none;align=center;verticalAlign=middle;whiteSpace=wrap;rounded=0;dashed=1;fontSize=20;" parent="1" vertex="1">
          <mxGeometry x="296" y="219" width="144.88" height="48" as="geometry" />
        </mxCell>
      </root>
    </mxGraphModel>
  </diagram>
</mxfile>
